<svg width="271" height="997" viewBox="0 0 271 997" fill="none" xmlns="http://www.w3.org/2000/svg">
<path d="M263 552C163.8 582.4 50.3333 560.667 6 546V936C6 947 49 989 145 992C221.8 994.4 259 952.333 268 931L263 552Z" fill="#FED235"/>
<path d="M62.4444 343.076C60.0444 315.875 72.1111 163.076 78.4444 90.0755C72.4444 82.0755 72.4445 78.5755 71.9445 70.0755C71.5445 63.2755 73.1111 51.9088 73.9445 47.0755C70.3445 46.2755 69.1111 41.7422 68.9445 39.5755C70.2778 32.4088 73.6445 17.1755 76.4445 13.5755C79.9445 9.0755 111.944 4.57551 130.944 4.07551C149.944 3.57551 180.944 5.57551 187.944 9.57551C193.544 12.7755 197.611 28.9088 198.944 36.5755C201.744 42.1755 196.778 45.2422 193.944 46.0755C199.944 76.0755 193.444 87.9088 189.444 90.0755C195.444 103.076 204.444 263.076 204.444 317.076C204.444 371.076 221.444 397.076 240.444 415.076C255.644 429.475 264.111 449.076 266.444 457.076V934.076C263.111 953.409 232.844 992.076 138.444 992.076C20.4445 992.076 4.44444 940.076 4.44444 934.076C4.44444 928.076 3.44444 872.076 4.44444 638.076C5.44444 404.076 3.44444 449.076 20.4444 426.076C37.4444 403.076 65.4444 377.076 62.4444 343.076Z" fill="#787B44" fill-opacity="0.54" stroke="black" stroke-width="8"/>
</svg>
